<?xml version="1.0" encoding="UTF-8" standalone="no"?>
<svg
   xmlns:osb="http://www.openswatchbook.org/uri/2009/osb"
   xmlns:dc="http://purl.org/dc/elements/1.1/"
   xmlns:cc="http://creativecommons.org/ns#"
   xmlns:rdf="http://www.w3.org/1999/02/22-rdf-syntax-ns#"
   xmlns:svg="http://www.w3.org/2000/svg"
   xmlns="http://www.w3.org/2000/svg"
   xmlns:xlink="http://www.w3.org/1999/xlink"
   xmlns:sodipodi="http://sodipodi.sourceforge.net/DTD/sodipodi-0.dtd"
   xmlns:inkscape="http://www.inkscape.org/namespaces/inkscape"
   viewBox="0 0 48 48"
   version="1.1"
   id="svg7"
   sodipodi:docname="recorder-icon.svg"
   inkscape:version="0.92.4 (5da689c313, 2019-01-14)"
   inkscape:export-filename="/home/alan/dev/recorder/client/images/recorder-icon-32.png"
   inkscape:export-xdpi="64"
   inkscape:export-ydpi="64">
  <metadata
     id="metadata11">
    <rdf:RDF>
      <cc:Work
         rdf:about="">
        <dc:format>image/svg+xml</dc:format>
        <dc:type
           rdf:resource="http://purl.org/dc/dcmitype/StillImage" />
      </cc:Work>
    </rdf:RDF>
  </metadata>
  <sodipodi:namedview
     pagecolor="#ffffff"
     bordercolor="#666666"
     borderopacity="1"
     objecttolerance="10"
     gridtolerance="10"
     guidetolerance="10"
     inkscape:pageopacity="0"
     inkscape:pageshadow="2"
     inkscape:window-width="1775"
     inkscape:window-height="846"
     id="namedview9"
     showgrid="false"
     inkscape:zoom="4.9166667"
     inkscape:cx="-11.898305"
     inkscape:cy="24"
     inkscape:window-x="0"
     inkscape:window-y="27"
     inkscape:window-maximized="0"
     inkscape:current-layer="svg7" />
  <defs
     id="defs3">
    <linearGradient
       id="linearGradient4946"
       osb:paint="solid">
      <stop
         style="stop-color:#ff7a7a;stop-opacity:1;"
         offset="0"
         id="stop4944" />
    </linearGradient>
    <path
       fill="#000000"
       id="i-2193"
       d="M14.501,15c0-1.93-1.57-3.5-3.501-3.5S7.499,13.07,7.499,15s1.57,3.5,3.501,3.5S14.501,16.93,14.501,15z M9.499,15 c0-0.827,0.673-1.5,1.501-1.5s1.501,0.673,1.501,1.5S11.828,16.5,11,16.5S9.499,15.827,9.499,15z M9.372,10.755L8.683,7.154 C9.418,6.937,10.2,6.818,11,6.818s1.582,0.118,2.317,0.336l-0.689,3.601c-0.51-0.19-1.055-0.3-1.628-0.3S9.882,10.564,9.372,10.755z M14.937,17.273c0.286-0.496,0.465-1.023,0.553-1.561l3.464,1.203c-0.179,0.746-0.468,1.482-0.868,2.175 c-0.399,0.692-0.893,1.312-1.449,1.839l-2.773-2.397C14.282,18.187,14.649,17.769,14.937,17.273z M8.138,18.532L5.364,20.93 c-0.557-0.527-1.05-1.146-1.449-1.839c-0.4-0.692-0.689-1.429-0.868-2.175l3.464-1.203c0.088,0.537,0.267,1.064,0.553,1.561 C7.351,17.769,7.718,18.187,8.138,18.532z M48,15c0-6.065-4.935-11-11-11c-4.264,0-7.961,2.443-9.785,6h-6.43 C18.961,6.443,15.264,4,11,4C4.935,4,0,8.935,0,15c0,4.265,2.443,7.961,6,9.786V44h36V24.786C45.557,22.961,48,19.265,48,15z M2,15 c0-4.963,4.037-9,9-9s9,4.037,9,9s-4.037,9-9,9S2,19.963,2,15z M40,42H8V25.573C8.955,25.845,9.959,26,11,26c6.065,0,11-4.935,11-11 c0-1.041-0.155-2.045-0.427-3h4.854C26.155,12.955,26,13.959,26,15c0,6.065,4.935,11,11,11c1.041,0,2.045-0.155,3-0.427V42z M37,24 c-4.963,0-9-4.037-9-9s4.037-9,9-9s9,4.037,9,9S41.963,24,37,24z M37,11.5c-1.93,0-3.5,1.57-3.5,3.5s1.57,3.5,3.5,3.5 s3.5-1.57,3.5-3.5S38.93,11.5,37,11.5z M37,16.5c-0.827,0-1.5-0.673-1.5-1.5s0.673-1.5,1.5-1.5s1.5,0.673,1.5,1.5 S37.827,16.5,37,16.5z M38.627,19.245l0.691,3.601C38.582,23.063,37.8,23.182,37,23.182s-1.582-0.118-2.318-0.336l0.691-3.601 c0.509,0.19,1.055,0.3,1.627,0.3S38.118,19.436,38.627,19.245z M44.953,13.084l-3.463,1.203c-0.09-0.537-0.268-1.064-0.554-1.561 c-0.286-0.495-0.653-0.913-1.073-1.259l2.771-2.397c0.558,0.527,1.051,1.146,1.451,1.839C44.485,11.602,44.774,12.338,44.953,13.084 z M33.063,12.727c-0.286,0.496-0.464,1.023-0.554,1.561l-3.463-1.203c0.179-0.746,0.468-1.482,0.867-2.175 c0.4-0.692,0.894-1.312,1.451-1.839l2.771,2.397C33.717,11.813,33.35,12.231,33.063,12.727z M36,33h2v2h-2v5h-2v-5h-2v-2h2v-4h2V33z M29,31h2v2h-2v7h-2v-7h-2v-2h2v-2h2V31z M10,40h12V29H10V40z M12,31h8v7h-2.151c-0.125-0.304-0.326-0.563-0.575-0.771L18,33 l-2.024,3.761c-0.823,0.01-1.528,0.519-1.824,1.239H12V31z" />
  </defs>
  <use
     height="100%"
     width="100%"
     x="0"
     y="0"
     xlink:href="#i-2193"
     id="use5"
     transform="translate(0.20338946)" />
</svg>
